HIERARCHY
ROOT joint_Root
{
	OFFSET 0.0 0.0 0.0
	CHANNELS 6 Xposition Yposition Zposition Zrotation Xrotation Yrotation 
	JOINT Hips
	{
		OFFSET 4.5925 91.4895 -427.239
		CHANNELS 6 Xposition Yposition Zposition Zrotation Xrotation Yrotation 
		JOINT Spine
		{
			OFFSET 15.7357 0.0 0.0
			CHANNELS 6 Xposition Yposition Zposition Zrotation Xrotation Yrotation 
			JOINT Chest
			{
				OFFSET 8.98455 -0.406207 0.0
				CHANNELS 6 Xposition Yposition Zposition Zrotation Xrotation Yrotation 
				JOINT Neck
				{
					OFFSET 16.3773 0.0 0.0
					CHANNELS 6 Xposition Yposition Zposition Zrotation Xrotation Yrotation 
					JOINT Head
					{
						OFFSET 6.45672 0.0 0.0
						CHANNELS 6 Xposition Yposition Zposition Zrotation Xrotation Yrotation 
						End Site
						{
							OFFSET 0.0 0.0 0.0
						}
					}
				}
				JOINT Shoulder_L
				{
					OFFSET 12.9942 -0.242716 4.98039
					CHANNELS 6 Xposition Yposition Zposition Zrotation Xrotation Yrotation 
					JOINT UpperArm_L
					{
						OFFSET 5.34809 0.0 0.0
						CHANNELS 6 Xposition Yposition Zposition Zrotation Xrotation Yrotation 
						JOINT LowerArm_L
						{
							OFFSET 24.3286 1.87007e-05 0.0
							CHANNELS 6 Xposition Yposition Zposition Zrotation Xrotation Yrotation 
							JOINT Hand_L
							{
								OFFSET 22.2916 0.0 0.0
								CHANNELS 6 Xposition Yposition Zposition Zrotation Xrotation Yrotation 
								End Site
								{
									OFFSET 0.0 0.0 0.0
								}
							}
						}
					}
				}
				JOINT Shoulder_R
				{
					OFFSET 12.9945 -0.242716 -4.98039
					CHANNELS 6 Xposition Yposition Zposition Zrotation Xrotation Yrotation 
					JOINT UpperArm_R
					{
						OFFSET -5.34813 0.0 0.0
						CHANNELS 6 Xposition Yposition Zposition Zrotation Xrotation Yrotation 
						JOINT LowerArm_R
						{
							OFFSET -24.3289 0.000322201 0.0
							CHANNELS 6 Xposition Yposition Zposition Zrotation Xrotation Yrotation 
							JOINT Hand_R
							{
								OFFSET -22.2915 -0.000108084 0.0
								CHANNELS 6 Xposition Yposition Zposition Zrotation Xrotation Yrotation 
								End Site
								{
									OFFSET 0.0 0.0 0.0
								}
							}
						}
					}
				}
			}
		}
		JOINT UpperLeg_L
		{
			OFFSET -2.19248 -6.46944 0.0
			CHANNELS 6 Xposition Yposition Zposition Zrotation Xrotation Yrotation 
			JOINT LowerLeg_L
			{
				OFFSET 39.0811 0.0 -1.23785e-05
				CHANNELS 6 Xposition Yposition Zposition Zrotation Xrotation Yrotation 
				JOINT Foot_L
				{
					OFFSET 40.9854 0.0 -1.26872e-05
					CHANNELS 6 Xposition Yposition Zposition Zrotation Xrotation Yrotation 
					JOINT Toes_L
					{
						OFFSET 11.7543 0.0 0.0
						CHANNELS 6 Xposition Yposition Zposition Zrotation Xrotation Yrotation 
						End Site
						{
							OFFSET 0.0 0.0 0.0
						}
					}
				}
			}
		}
		JOINT UpperLeg_R
		{
			OFFSET -2.19251 6.46944 0.0
			CHANNELS 6 Xposition Yposition Zposition Zrotation Xrotation Yrotation 
			JOINT LowerLeg_R
			{
				OFFSET -39.0811 -0.00228153 -0.0401928
				CHANNELS 6 Xposition Yposition Zposition Zrotation Xrotation Yrotation 
				JOINT Foot_R
				{
					OFFSET -40.9854 0.0 0.0
					CHANNELS 6 Xposition Yposition Zposition Zrotation Xrotation Yrotation 
					JOINT Toes_R
					{
						OFFSET -11.7543 0.0 0.0
						CHANNELS 6 Xposition Yposition Zposition Zrotation Xrotation Yrotation 
						End Site
						{
							OFFSET 0.0 0.0 0.0
						}
					}
				}
			}
		}
	}
}
MOTION
Frames:	4
Frame Time:	0.0333333
0.000000 0.000000 0.000000 0.000000 0.000000 -0.000000 127.078000 90.984800 24.239500 91.011700 1.635380 3.084930 15.735700 0.000005 -0.000001 103.913000 83.833800 -104.146000 8.984550 -0.406207 -0.000000 4.215270 2.967800 -0.575195 16.377300 -0.000001 -0.000001 -1.886810 -2.578890 1.983470 6.456720 -0.000001 -0.000000 -7.756740 -5.491270 9.846970 12.994200 -0.242716 4.980390 -91.223600 3.901200 -72.570500 5.348090 -0.000007 -0.000001 -73.778400 17.815900 5.202210 24.328600 0.000019 0.000005 7.838460 31.158000 -14.899900 22.291600 -0.000001 0.000005 7.572610 5.144890 4.065650 12.994500 -0.242716 -4.980390 88.613900 10.348800 -82.328800 -5.348130 -0.000001 -0.000004 -56.174600 26.611700 -16.218000 -24.328900 0.000322 -0.000009 2.195140 6.012680 -20.109400 -22.291500 -0.000108 -0.000004 15.616000 5.386060 -2.489760 -2.192480 -6.469440 -0.000000 -174.890000 -9.024250 -19.987400 39.081100 -0.000007 -0.000012 0.086558 -0.048173 60.899700 40.985400 -0.000006 -0.000013 -0.742734 -1.388040 -60.386800 11.754300 -0.000000 0.000003 -0.003466 -0.045779 -18.438700 -2.192510 6.469440 -0.000001 176.180000 26.521800 -178.854000 -39.081100 -0.002282 -0.040193 0.009606 -0.012045 27.610300 -40.985400 0.000008 0.000006 9.518210 11.166100 -73.649000 -11.754300 -0.000006 -0.000006 -0.656306 -0.799567 -18.273900
0.000000 0.000000 0.000000 0.000000 0.000000 -0.000000 127.054000 91.236500 25.700900 91.377600 1.160860 2.520510 15.735700 0.000005 -0.000001 106.320000 83.851300 -106.787000 8.984550 -0.406207 -0.000000 4.056200 3.465610 -1.054610 16.377300 -0.000001 -0.000001 -1.805790 -2.521200 1.638420 6.456720 -0.000001 -0.000000 -7.585000 -5.653480 9.130780 12.994200 -0.242716 4.980390 -91.312600 4.084930 -72.169200 5.348090 -0.000007 -0.000001 -72.805500 17.362600 6.156370 24.328600 0.000019 0.000005 8.081040 29.897600 -15.899600 22.291600 -0.000001 0.000005 8.525370 5.156110 3.797130 12.994500 -0.242716 -4.980390 88.688500 9.944180 -82.448400 -5.348130 -0.000001 -0.000004 -54.394200 24.874700 -19.238400 -24.328900 0.000322 -0.000009 1.909400 4.781080 -21.813300 -22.291500 -0.000108 -0.000004 15.940300 5.387120 -2.522510 -2.192480 -6.469440 -0.000000 -176.460000 -10.116600 -21.746500 39.081100 -0.000007 -0.000012 0.060099 -0.043414 54.153900 40.985400 -0.000006 -0.000013 -0.419959 -0.327192 -61.402900 11.754300 -0.000000 0.000003 -0.003610 -0.047330 -18.501900 -2.192510 6.469440 -0.000001 175.090000 27.642000 -177.385000 -39.081100 -0.002282 -0.040193 0.002438 0.001794 25.921900 -40.985400 0.000008 0.000006 9.570750 13.255300 -73.145400 -11.754300 -0.000006 -0.000006 -0.276671 -0.359851 -18.655800
0.000000 0.000000 0.000000 0.000000 0.000000 -0.000000 127.062000 91.401600 27.193900 91.460300 0.715938 1.988170 15.735700 0.000005 -0.000001 107.822000 83.870800 -108.418000 8.984550 -0.406207 -0.000000 3.931090 3.766360 -1.321190 16.377300 -0.000001 -0.000001 -1.806520 -2.471070 1.335040 6.456720 -0.000001 -0.000000 -7.766400 -5.766620 8.358730 12.994200 -0.242716 4.980390 -91.410200 4.323460 -71.915100 5.348090 -0.000007 -0.000001 -72.007800 16.909700 6.583900 24.328600 0.000019 0.000005 8.137610 29.043900 -16.411500 22.291600 -0.000001 0.000005 9.404510 5.161120 3.676010 12.994500 -0.242716 -4.980390 88.779900 9.601340 -82.723300 -5.348130 -0.000001 -0.000004 -52.822000 23.329500 -21.778200 -24.328900 0.000322 -0.000009 1.539260 3.507990 -23.726000 -22.291500 -0.000108 -0.000004 16.477300 5.400220 -2.944540 -2.192480 -6.469440 -0.000000 -177.761000 -11.548100 -22.348200 39.081100 -0.000007 -0.000012 0.038565 -0.039032 44.653000 40.985400 -0.000006 -0.000013 -1.185630 1.262730 -61.647000 11.754300 -0.000000 0.000003 -0.003304 -0.044003 -18.366400 -2.192510 6.469440 -0.000001 174.297000 28.418100 -176.050000 -39.081100 -0.002282 -0.040193 -0.003625 0.015202 24.531800 -40.985400 0.000008 0.000006 9.258650 15.034900 -72.680900 -11.754300 -0.000006 -0.000006 -0.005333 -0.064648 -19.203700
0.000000 0.000000 0.000000 0.000000 0.000000 -0.000000 127.096000 91.411200 28.798400 91.153200 0.360959 1.505500 15.735700 0.000005 -0.000001 108.737000 83.922600 -109.329000 8.984550 -0.406207 -0.000000 3.772530 3.919740 -1.312310 16.377300 -0.000001 -0.000001 -1.939830 -2.490730 1.118340 6.456720 -0.000001 -0.000000 -8.005520 -5.843280 7.609850 12.994200 -0.242716 4.980390 -91.425400 4.368360 -71.909200 5.348090 -0.000007 -0.000001 -71.695300 16.364000 6.581950 24.328600 0.000019 0.000005 8.148000 29.030500 -16.438100 22.291600 -0.000001 0.000005 9.895610 5.156770 3.780800 12.994500 -0.242716 -4.980390 88.850700 9.292580 -82.918100 -5.348130 -0.000001 -0.000004 -51.480200 22.174700 -23.876500 -24.328900 0.000322 -0.000009 1.422590 2.964860 -25.665800 -22.291500 -0.000108 -0.000004 16.856000 5.408220 -3.206430 -2.192480 -6.469440 -0.000000 -178.856000 -13.533700 -21.944100 39.081100 -0.000007 -0.000012 0.024489 -0.037660 33.033300 40.985400 -0.000006 -0.000013 -2.344670 3.191270 -60.416000 11.754300 -0.000000 0.000003 -0.003245 -0.043350 -18.339800 -2.192510 6.469440 -0.000001 173.782000 29.286800 -174.762000 -39.081100 -0.002282 -0.040193 -0.008376 0.026800 23.567000 -40.985400 0.000008 0.000006 9.053440 16.740700 -72.302400 -11.754300 -0.000006 -0.000006 -0.007656 -0.085204 -20.042300
